<svg width="451" height="199" viewBox="0 0 451 199" fill="none" xmlns="http://www.w3.org/2000/svg">
<path fill-rule="evenodd" clip-rule="evenodd" d="M175.048 27.7346C186.673 27.7346 196.044 35.8249 195.841 47.7697C195.841 50.3543 194.597 51.1934 191.983 51.1934H162.358C160.174 51.1934 159.033 52.562 159.236 55.353C160.278 69.7836 168.17 76.0207 177.437 76.0207C182.415 76.0207 187.617 74.1451 191.884 69.5817C193.663 67.8317 196.048 69.1778 194.804 71.5605C190.006 80.3867 181.17 82.7694 174.217 82.7694C159.339 82.7694 148.832 71.8656 148.832 55.5594C148.832 39.2531 161.423 27.7391 175.057 27.7391L175.048 27.7346ZM173.678 31.5666C168.067 31.5666 161.823 35.3224 159.968 44.0454C159.433 46.3293 160.579 47.5722 162.456 47.5722H182.307C184.49 47.5722 185.532 46.2261 185.326 43.7178C184.692 34.9948 178.978 31.5711 173.673 31.5711L173.678 31.5666Z" fill="#000000"/>
<path fill-rule="evenodd" clip-rule="evenodd" d="M253.767 27.7346C265.392 27.7346 274.763 35.8249 274.561 47.7697C274.561 50.3543 273.316 51.1934 270.702 51.1934H241.077C238.894 51.1934 237.753 52.562 237.955 55.353C238.997 69.7836 246.889 76.0207 256.157 76.0207C261.134 76.0207 266.336 74.1451 270.603 69.5817C272.382 67.8317 274.767 69.1778 273.523 71.5605C268.725 80.3867 259.89 82.7694 252.936 82.7694C238.058 82.7694 227.551 71.8656 227.551 55.5594C227.551 39.2531 240.142 27.7391 253.776 27.7391L253.767 27.7346ZM252.397 31.5666C246.786 31.5666 240.542 35.3179 238.687 44.0454C238.152 46.3293 239.298 47.5722 241.176 47.5722H261.031C263.214 47.5722 264.256 46.2261 264.049 43.7178C263.416 34.9948 257.702 31.5711 252.397 31.5711V31.5666Z" fill="#000000"/>
<path d="M336.143 19.6218C338.02 17.5443 340.406 18.684 340.406 20.968V27.3083C340.406 28.65 341.344 29.2871 343.123 29.2871C346.447 29.2871 349.673 29.2871 352.997 29.1839C357.161 29.0807 357.161 35.0935 352.997 34.9903C349.673 34.8871 346.447 34.8871 343.123 34.8871C341.344 34.8871 340.307 35.7262 340.307 37.373C340.307 48.1735 340.208 58.7766 340.208 69.2721C340.208 76.9541 347.696 78.197 354.246 72.799C356.429 71.049 358.208 72.799 356.936 75.0829C355.589 77.4925 351.124 82.7649 343.429 82.7649C334.799 82.7649 331.067 76.9585 331.067 70.8201C331.067 59.8132 331.17 48.7075 331.17 39.5807C331.17 35.4211 330.231 34.6852 326.471 34.6852C323.475 34.6852 323.246 31.9705 324.823 30.6288C328.555 27.407 332.72 23.3776 336.147 19.6218H336.143Z" fill="#000000"/>
<path fill-rule="evenodd" clip-rule="evenodd" d="M28.1297 8.41297C55.9042 7.67708 74.7126 21.3988 74.7126 45.2838C74.7126 69.1689 57.3462 82.1547 30.2095 81.32C18.3549 81.0149 9.42019 81.1181 2.66411 81.4233C-0.0536016 81.5265 -1.09127 77.6944 2.03072 76.7566C8.58018 74.881 8.9081 74.1451 9.01141 63.6721C9.11473 51.5254 9.21356 39.6839 9.11473 25.9622C9.01142 15.5655 8.91259 15.4623 2.03072 13.0796C-1.09127 11.9399 -0.457889 8.21105 2.86625 8.41297C9.01142 8.71809 18.0495 8.71809 28.1252 8.41297H28.1297ZM27.3166 12.6758C19.195 12.6758 18.8895 13.0796 18.8895 17.8494C18.7862 36.2332 18.8895 48.9139 18.9928 63.6721C19.0961 73.84 21.0727 76.7566 33.1339 76.7566C50.5003 76.7566 62.7591 65.0138 62.9882 44.9562C63.1904 22.3366 48.6181 12.6758 27.3211 12.6758H27.3166Z" fill="#000000"/>
<path fill-rule="evenodd" clip-rule="evenodd" d="M129.826 24.9212C129.826 4.55851 149.169 -3.12347 159.352 1.13482C170.165 5.69825 160.394 17.643 154.146 10.0597C147.394 1.87071 139.093 5.39312 138.864 16.1982C138.864 19.6218 138.864 21.0667 138.967 27.3038C138.967 28.6455 139.906 29.2827 141.685 29.2827C145.009 29.2827 148.234 29.2827 151.563 29.1795C156.028 29.0763 155.727 35.089 151.563 34.9858C148.239 34.8826 145.014 34.8826 141.685 34.8826C139.906 34.8826 138.967 35.8204 138.967 37.4941C138.864 47.3569 138.864 56.6901 138.967 66.5573C139.093 74.3695 139.704 75.6124 148.131 76.8553C151.15 77.2592 150.925 81.2168 147.597 81.2168C139.093 81.1136 82.0347 81.1226 75.5526 81.2168C72.7361 81.2168 72.1027 77.5912 75.018 76.8553C80.7275 75.5092 81.1632 74.9797 81.3653 64.5067C81.4687 58.8754 81.4687 53.3741 81.3653 47.7697C81.262 40.8236 80.5163 39.7108 76.725 37.9159C74.3128 36.7762 74.6452 33.6935 76.725 32.7557C80.3816 31.082 81.7696 30.3192 85.9338 28.2416C89.2579 26.5949 90.5022 28.0397 90.5022 30.8262C90.3989 42.062 90.3989 53.2709 90.5022 64.5022C90.7178 74.1855 92.2721 76.5637 95.7714 76.6085C99.2708 76.6534 100.928 74.2663 101.023 66.5573C101.126 56.6946 101.126 46.8274 101.023 36.9646C101.023 35.4166 100.389 34.6807 98.7362 34.6807H95.5109C92.2856 34.6807 92.0834 30.723 94.9763 29.9153C100.511 28.4436 101.018 27.4026 101.018 24.9212C101.018 4.55851 120.361 -3.12347 130.545 1.13482C139.385 5.15979 129.502 16.1982 125.343 10.0597C118.591 1.87071 110.29 5.39312 110.061 16.1982C110.061 19.6218 110.061 21.0667 110.164 27.3038C110.164 28.6455 111.103 29.2827 112.882 29.2827C116.206 29.2827 125.891 29.3904 127.93 28.457C129.61 27.5461 129.826 26.541 129.826 24.9212ZM112.882 34.8871C111.103 34.8871 110.164 35.8249 110.164 37.4986C110.061 47.3614 110.061 56.6946 110.164 66.5618C110.29 74.3425 112.253 76.8194 120.685 76.8194C127.876 76.8194 129.772 74.2618 129.826 66.5618C129.929 56.6991 129.929 47.8549 129.826 37.4178C129.826 35.78 129.175 35.0038 127.49 35.0038C127.49 35.0038 116.21 34.8916 112.886 34.8916L112.882 34.8871Z" fill="#000000"/>
<path d="M204.992 28.2416C208.316 26.6936 209.56 28.0397 209.56 30.8262C209.56 33.6128 211.645 34.9858 214.56 32.9038C218.621 30.0141 222.354 27.7301 226.617 27.7301C238.575 27.7301 233.27 45.1761 222.785 37.6961C216.11 33.0025 209.785 37.898 209.56 49.3357C209.457 54.4062 209.457 59.4048 209.56 64.5022C209.789 74.872 209.992 75.0784 218.827 76.8509C221.949 77.4835 221.213 81.2124 218.293 81.2124C209.56 81.1092 201.156 81.1092 194.507 81.2124C191.992 81.2124 191.053 77.6899 194.175 76.8509C200.015 75.406 200.217 74.7688 200.419 64.5022C200.522 58.8709 200.522 53.3696 200.419 47.7652C200.316 40.8191 199.583 39.7153 195.316 37.6961C192.904 36.5563 193.236 33.8416 195.316 32.9038C199.359 30.9564 201.663 29.7852 204.987 28.2372L204.992 28.2416Z" fill="#000000"/>
<path d="M283.711 28.2416C286.86 26.7968 288.28 27.609 288.28 30.8262C288.28 34.0435 290.463 34.8826 293.585 32.8051C307.164 23.75 323.008 27.2006 322.806 42.5691C322.702 49.8472 322.702 57.2286 322.806 64.5067C322.909 74.7778 323.008 75.4105 329.05 76.8553C332.172 77.5912 331.435 81.2168 328.542 81.2168C321.561 81.1136 314.81 81.1136 307.825 81.2168C305.237 81.2168 304.397 77.6899 307.42 76.8553C313.233 75.4105 313.462 74.7733 313.664 64.5067C313.768 58.1664 313.768 51.8261 313.664 45.4857C313.462 34.4788 302.847 29.6865 293.378 36.6595C289.748 39.3473 288.401 43.812 288.275 49.3402C288.172 54.4107 288.172 59.4093 288.275 64.5067C288.504 74.7778 288.504 75.4105 294.519 76.8553C297.641 77.5912 296.904 81.2168 294.011 81.2168C287.031 81.1136 280.275 81.1136 273.321 81.2168C270.504 81.2168 269.866 77.5912 272.786 76.8553C278.496 75.5092 278.931 74.9797 279.134 64.5067C279.237 58.8754 279.237 53.3741 279.134 47.7697C279.03 40.8236 278.19 39.7108 273.923 37.6916C271.511 36.5518 271.838 33.9179 273.923 32.9801C278.19 30.8262 280.553 29.6865 283.702 28.2416H283.711Z" fill="#000000"/>
<path d="M84.9949 5.4694C88.93 5.4694 92.1014 8.4354 92.1014 12.0117C92.1014 15.9693 88.9255 19.2135 84.9949 19.2135C81.0868 19.2135 77.9109 16.1712 77.9109 12.4424C77.9109 8.63732 81.0823 5.4694 84.9949 5.4694Z" fill="#000000"/>
<path fill-rule="evenodd" clip-rule="evenodd" d="M153.962 89.5764C155.97 87.8488 158.53 89.3745 158.53 92.161C158.427 101.315 158.427 110.446 158.53 119.573C158.53 122.386 160.408 123.733 163.431 121.754C178.309 112.115 193.285 116.481 193.056 131.316C192.953 138.594 192.953 145.975 193.056 153.253C193.151 162.816 194.148 165.261 198.137 165.31C202.126 165.36 203.105 162.946 203.294 153.253C203.397 147.622 203.397 142.121 203.294 136.516C203.191 129.57 202.05 128.529 197.378 126.349C194.966 125.209 195.168 123.028 197.252 122.086C200.909 120.412 203.698 119.066 207.862 116.988C211.186 115.342 212.431 116.786 212.431 119.573C212.327 130.809 212.327 142.018 212.431 153.249C212.646 162.901 213.536 165.292 217.651 165.342C221.765 165.396 222.763 163.04 222.951 153.249C223.055 147.618 223.055 142.116 222.951 136.512C222.848 129.566 221.707 128.525 217.035 126.344C214.623 125.204 214.825 123.024 216.909 122.081C221.172 120.206 224.195 118.658 227.52 116.984C230.439 115.539 232.088 116.351 232.088 119.568C232.088 122.786 234.271 123.625 237.393 121.547C250.973 112.492 266.816 115.943 266.614 131.311C266.511 138.589 266.511 145.971 266.614 153.249C266.709 162.596 267.683 165.171 271.367 165.221C275.05 165.27 276.012 162.708 276.196 153.249C276.398 136.817 276.299 125.505 276.092 106.919C276.092 102.661 275.154 101.315 270.149 99.0084C267.764 97.8686 267.966 95.6879 270.051 94.7501C274.215 93.0001 277.233 91.5552 280.661 89.6796C283.275 88.2078 285.229 88.845 285.229 92.2642C285.126 109.405 285.126 121.556 285.229 138.796C285.229 141.609 287.21 142.018 289.394 140.268C291.118 138.823 292.772 137.4 294.393 135.982C297.008 133.698 299.573 131.441 302.187 129.135C305.412 126.344 304.774 123.733 300.637 122.593C297.619 121.884 297.412 118.029 301.248 118.029C307.595 118.133 313.696 118.133 319.634 118.029C323.264 117.926 323.309 121.727 319.998 122.494C316.476 123.306 313.103 125.514 308.633 129.238L305.686 131.751C302.717 134.313 299.797 136.952 296.981 139.433C295.84 140.371 295.84 141.183 296.576 141.919C301.985 147.42 307.492 153.025 313.103 158.53C317.357 162.807 319.23 165.494 323.116 165.44C327.001 165.387 328.582 163.291 328.776 153.258C328.879 147.627 328.879 142.574 328.776 136.97C328.672 130.023 327.981 129.431 323.309 127.25C320.896 126.111 321.26 124.226 323.183 122.988C326.88 120.609 329.351 119.263 333.344 116.993C336.569 115.158 337.912 116.791 337.912 119.577C337.809 130.813 337.809 142.022 337.912 153.253C338.128 162.905 339.018 165.297 343.132 165.346C347.247 165.4 348.24 163.044 348.433 153.253C348.536 147.622 348.536 142.121 348.433 136.516C348.33 129.57 347.189 128.529 342.517 126.349C340.105 125.209 340.307 123.028 342.391 122.086C346.654 120.21 349.677 118.662 353.001 116.988C355.921 115.543 357.57 116.356 357.57 119.573C357.57 122.795 359.753 123.629 362.875 121.552C376.455 112.497 392.298 115.947 392.096 131.316C391.993 138.594 391.993 145.975 392.096 153.253C392.195 163.462 392.298 164.148 398.237 165.58C398.043 164.772 397.945 163.919 397.945 163.017C397.945 158.755 400.231 155.537 404.09 153.559C406.273 152.518 406.578 150.844 404.292 148.995C399.926 145.675 397.54 140.577 397.54 134.744C397.54 124.778 404.494 116.486 419.372 116.486C431.837 116.486 434.452 122.193 444.734 119.909C452.119 118.236 451.486 127.161 445.269 126.555C440.902 126.124 439.86 127.291 440.673 131.527C442.753 142.125 434.124 153.464 420.315 153.464C418.006 153.464 415.72 153.132 414.579 153.034C412.396 152.832 411.048 152.728 409.705 153.361C403.991 156.049 405.541 164.467 413.968 164.467H431.433C443.288 164.467 447.757 170.071 447.757 176.919C447.757 188.558 434.555 198.524 415.949 198.524C405.006 198.524 394.09 195.1 394.09 185.44C394.09 180.14 397.316 176.919 401.174 174.967C403.021 174.033 403.245 172.44 402.091 171.539C399.8 169.748 384.1 169.869 377.124 169.972C374.532 169.972 373.696 166.45 376.72 165.611C382.532 164.166 382.761 163.533 382.964 153.262C383.067 146.922 383.067 140.582 382.964 134.241C382.761 123.234 372.147 118.442 362.682 125.415C359.052 128.103 357.705 132.568 357.579 138.096C357.476 143.166 357.476 148.165 357.579 153.262C357.808 163.533 357.808 164.166 363.823 165.611C366.945 166.347 366.208 169.972 363.315 169.972C356.793 169.878 309.576 169.869 303.027 169.972C299.905 169.972 299.703 166.45 302.191 165.611C305.008 164.673 305.21 162.187 302.596 159.473C297.416 154.299 293.252 150.041 288.886 145.778C287.107 144.001 285.333 144.84 285.333 147.326V153.258C285.333 163.529 285.562 164.162 291.577 165.607C294.699 166.342 293.962 169.968 291.069 169.968C284.897 169.878 257.81 169.878 251.633 169.968C249.041 169.968 248.206 166.446 251.224 165.607C257.037 164.162 257.266 163.529 257.468 153.258C257.572 146.918 257.572 140.577 257.468 134.237C257.266 123.23 246.651 118.438 237.182 125.411C233.553 128.098 232.205 132.563 232.079 138.091C231.976 143.162 231.976 148.161 232.079 153.258C232.308 163.529 232.308 164.162 238.323 165.607C241.445 166.342 240.708 169.968 237.815 169.968C231.293 169.874 184.486 169.874 178.084 169.968C175.47 169.968 174.634 166.446 177.653 165.607C183.493 164.162 183.695 163.529 183.897 153.258C184 147.119 184 140.882 183.897 134.34C183.695 123.234 173.08 118.438 163.615 125.415C159.986 128.103 158.512 132.568 158.512 137.97C158.512 143.068 158.409 148.165 158.512 153.262C158.741 163.533 158.741 164.166 164.756 165.611C167.878 166.347 167.142 169.972 164.249 169.972C157.268 169.869 150.512 169.869 143.558 169.972C140.742 169.972 140.108 166.347 143.024 165.611C148.733 164.269 149.169 163.735 149.371 153.262C149.465 138.347 149.47 130.441 149.384 114.323C149.191 103.388 145.234 101.876 134.242 101.732C124.57 101.606 123.631 102.567 123.528 115.225C123.425 127.699 123.425 139.949 123.528 152.428C123.631 162.798 123.932 163.435 131.726 165.512C134.951 166.347 133.909 170.278 131.322 170.179C122.692 169.874 114.692 169.874 106.162 170.179C103.04 170.282 102.505 166.351 105.528 165.512C113.322 163.435 113.551 163.026 113.65 152.428C113.753 139.954 113.753 127.704 113.65 115.225C113.547 103.078 112.81 101.557 103.165 101.71C96.4363 101.813 92.883 102.383 88.9974 114.323C87.9552 117.491 83.4901 117.325 84.0202 113.497C84.6311 109.212 85.2645 105.56 85.5699 100.794C85.7721 98.3084 86.9175 97.0654 90.4438 97.1686C115.739 97.2853 137.75 97.2808 137.75 97.2808C150.26 97.2808 151.154 91.977 153.935 89.5854L153.962 89.5764ZM413.245 174.02C406.799 174.02 402.226 175.77 402.226 182.11C402.226 188.756 407.329 192.911 420.836 192.911C433.531 192.911 438.836 189.182 438.836 182.541C438.836 176.914 435.081 174.02 425.939 174.02H413.245ZM419.057 119.474C412 119.577 408.371 126.55 408.371 134.636C408.371 143.691 412.84 150.435 419.794 150.332C426.649 150.229 430.508 143.359 430.508 135.067C430.508 125.913 425.939 119.371 419.057 119.47V119.474Z" fill="#000000"/>
<path d="M206.928 94.2161C210.863 94.2161 214.034 97.1821 214.034 100.758C214.034 104.716 210.859 107.96 206.928 107.96C202.997 107.96 199.844 104.918 199.844 101.189C199.844 97.384 203.02 94.2161 206.928 94.2161Z" fill="#000000"/>
<path d="M332.419 94.2161C336.354 94.2161 339.525 97.1821 339.525 100.758C339.525 104.716 336.349 107.96 332.419 107.96C328.488 107.96 325.335 104.918 325.335 101.189C325.335 97.384 328.511 94.2161 332.419 94.2161Z" fill="#000000"/>
</svg>
